<svg viewBox="0 0 512 512" xmlns="http://www.w3.org/2000/svg">
    <path d="M458.61 504.5H405.1l-146.42-47.856L106.9 504.5H53.39c-25.344 0-45.89-20.545-45.89-45.89V405.1l63.053-150.885L7.5 106.9V53.39C7.5 28.045 28.045 7.5 53.39 7.5h53.51l155.77 44.775L405.1 7.5h53.51c25.344 0 45.89 20.545 45.89 45.89v53.51l-44.965 150.22L504.5 405.1v53.51c0 25.345-20.545 45.89-45.89 45.89z" fill="#f6f9f9"/>
    <path d="m405.1 206.3 54.435-23.669L504.5 206.3v99.4l-47.626 27.239L405.1 305.7l-26.705-52.933z" fill="#94afe5"/>
    <path d="M405.1 106.9h99.4v99.4h-99.4l-26.705-52.933zm0 198.8h99.4v99.4h-99.4l-26.705-52.933z" fill="#adc9fa"/>
    <path d="m106.9 305.7-54.435 23.669L7.5 305.7v-99.4l47.626-27.239L106.9 206.3l26.705 52.933z" fill="#baabeb"/>
    <path d="M106.9 405.1H7.5v-99.4h99.4l26.705 52.933zm0-198.8H7.5v-99.4h99.4l26.705 52.933z" fill="#ccbaeb"/>
    <path d="m305.7 405.1 23.669 54.435L305.7 504.5h-99.4l-27.239-47.626L206.3 405.1l52.933-26.705z" fill="#c8646d"/>
    <path d="M405.1 405.1v99.4h-99.4v-99.4l52.933-26.705zm-198.8 0v99.4h-99.4v-99.4l52.933-26.705z" fill="#e27f83"/>
    <path d="m206.3 106.9-23.669-54.435L206.3 7.5h99.4l27.239 47.626L305.7 106.9l-52.933 26.705z" fill="#f1cd6b"/>
    <path d="M106.9 106.9V7.5h99.4v99.4l-52.933 26.705zm198.8 0V7.5h99.4v99.4l-52.933 26.705z" fill="#f5dd81"/>
    <path d="M405.1 106.9v298.2H106.9V106.9z" fill="#bfe19f"/>
    <path d="M223.25 256.104h-50.889c-13.496 0-24.437-10.941-24.437-24.437v-50.889c0-13.496 10.941-24.437 24.437-24.437h50.889c13.496 0 24.437 10.941 24.437 24.437v50.889c-.001 13.497-10.941 24.437-24.437 24.437z" fill="#f6f9f9"/>
    <path d="M187.654 256.109h-15.3c-13.49 0-24.43-10.94-24.43-24.44v-50.89c0-13.49 10.94-24.43 24.43-24.43h15.3c-13.5 0-24.44 10.94-24.44 24.43v50.89c0 13.5 10.94 24.44 24.44 24.44z" fill="#dddaec"/>
    <path d="M339.639 355.654H288.75c-13.496 0-24.437-10.941-24.437-24.437v-50.889c0-13.496 10.941-24.437 24.437-24.437h50.889c13.496 0 24.437 10.941 24.437 24.437v50.889c0 13.496-10.941 24.437-24.437 24.437z" fill="#f6f9f9"/>
    <path d="M304.044 355.658h-15.3c-13.49 0-24.43-10.94-24.43-24.44v-50.89c0-13.49 10.94-24.43 24.43-24.43h15.3c-13.5 0-24.44 10.94-24.44 24.43v50.89c0 13.5 10.94 24.44 24.44 24.44z" fill="#dddaec"/>
    <path d="M458.61 0H53.39C23.951 0 0 23.951 0 53.39v405.22C0 488.049 23.951 512 53.39 512h405.22c29.439 0 53.39-23.951 53.39-53.39v-77.42a7.5 7.5 0 0 0-15 0v16.41h-84.4v-84.4H497v37.99a7.5 7.5 0 0 0 15 0V53.39C512 23.951 488.049 0 458.61 0zM213.8 99.4V15h84.4v84.4zm-99.4 0V15h84.4v84.4zm183.8 313.2V497h-84.4v-84.4zm99.4 0V497h-84.4v-84.4zM198.8 497h-84.4v-84.4h84.4zM15 397.6v-84.4h84.4v84.4zm84.4-198.8H75.49a7.5 7.5 0 0 0 0 15H99.4v84.4H15v-84.4h30.49a7.5 7.5 0 0 0 0-15H15v-84.4h84.4zM313.2 15h84.4v84.4h-84.4zm99.4 99.4H497v84.4h-84.4zM497 53.39V99.4h-84.4V15h46.01C479.778 15 497 32.222 497 53.39zM53.39 15H99.4v84.4H15V53.39C15 32.222 32.222 15 53.39 15zM15 458.61V412.6h84.4V497H53.39C32.222 497 15 479.778 15 458.61zm482 0c0 21.168-17.222 38.39-38.39 38.39H412.6v-84.4H497zM114.4 397.6V114.4h283.2v283.2zm298.2-99.4v-84.4H497v84.4z"/>
    <path d="M223.25 148.842h-50.889c-17.61 0-31.937 14.327-31.937 31.937v50.889c0 17.61 14.327 31.937 31.937 31.937h50.889c17.61 0 31.937-14.327 31.937-31.937v-50.889c0-17.61-14.327-31.937-31.937-31.937zm16.937 82.826c0 9.339-7.598 16.937-16.937 16.937h-50.889c-9.339 0-16.937-7.598-16.937-16.937v-50.889c0-9.339 7.598-16.937 16.937-16.937h50.889c9.339 0 16.937 7.598 16.937 16.937z"/>
    <path d="M197.805 198.223a7.5 7.5 0 0 0-7.5 7.5v.5a7.5 7.5 0 0 0 15 0v-.5a7.5 7.5 0 0 0-7.5-7.5zm23.237-23.236a7.5 7.5 0 0 0-7.5 7.5v.5a7.5 7.5 0 0 0 15 0v-.5a7.5 7.5 0 0 0-7.5-7.5zm-46.473 46.473a7.5 7.5 0 0 0-7.5 7.5v.5a7.5 7.5 0 0 0 15 0v-.5a7.5 7.5 0 0 0-7.5-7.5zm165.07 26.931H288.75c-17.61 0-31.937 14.327-31.937 31.937v50.889c0 17.61 14.327 31.937 31.937 31.937h50.889c17.61 0 31.937-14.327 31.937-31.937v-50.889c0-17.61-14.327-31.937-31.937-31.937zm16.937 82.826c0 9.339-7.598 16.937-16.937 16.937H288.75c-9.339 0-16.937-7.598-16.937-16.937v-50.889c0-9.339 7.598-16.937 16.937-16.937h50.889c9.339 0 16.937 7.598 16.937 16.937z"/>
    <path d="M314.195 297.772a7.5 7.5 0 0 0-7.5 7.5v.5a7.5 7.5 0 0 0 15 0v-.5a7.5 7.5 0 0 0-7.5-7.5zm23.236-7.736a7.5 7.5 0 0 0 7.5-7.5v-.5a7.5 7.5 0 0 0-15 0v.5a7.5 7.5 0 0 0 7.5 7.5zm-46.473 30.973a7.5 7.5 0 0 0-7.5 7.5v.5a7.5 7.5 0 0 0 15 0v-.5a7.5 7.5 0 0 0-7.5-7.5zm46.723.25h-.5a7.5 7.5 0 0 0 0 15h.5a7.5 7.5 0 0 0 0-15zm-46.473-46.473h-.5a7.5 7.5 0 0 0 0 15h.5a7.5 7.5 0 0 0 0-15zM438.252 85.048h31.924a7.5 7.5 0 0 0 0-15h-13.817l20.59-20.59a7.5 7.5 0 0 0 0-10.606 7.5 7.5 0 0 0-10.606 0l-20.59 20.59V45.624a7.5 7.5 0 0 0-15 0v31.924a7.499 7.499 0 0 0 7.499 7.5zM40.533 54.454h30.594a7.5 7.5 0 0 0 0-15H40.533a7.5 7.5 0 0 0 0 15zm0 21.282h30.594a7.5 7.5 0 0 0 0-15H40.533a7.5 7.5 0 0 0 0 15zm411.691 405.031c15.137 0 27.453-12.315 27.453-27.453s-12.315-27.452-27.453-27.452-27.453 12.315-27.453 27.452 12.315 27.453 27.453 27.453zm0-39.905c6.866 0 12.453 5.586 12.453 12.452s-5.586 12.453-12.453 12.453-12.453-5.586-12.453-12.453 5.586-12.452 12.453-12.452zM84.433 456.904h-6.467v-7.849h6.467a7.5 7.5 0 0 0 0-15h-6.467v-6.467a7.5 7.5 0 0 0-15 0v6.467h-7.849v-6.467a7.5 7.5 0 0 0-15 0v6.467H33.65a7.5 7.5 0 0 0 0 15h6.467v7.849H33.65a7.5 7.5 0 0 0 0 15h6.467v6.467a7.5 7.5 0 0 0 15 0v-6.467h7.849v6.467a7.5 7.5 0 0 0 15 0v-6.467h6.467a7.5 7.5 0 0 0 0-15zm-29.316 0v-7.849h7.849v7.849z"/>
</svg>
